<?xml version="1.0" encoding="UTF-8"?>
<svg fill="#ffffff" width="145px" height="130px" viewBox="0 0 145 130" version="1.1" xmlns="http://www.w3.org/2000/svg" xmlns:xlink="http://www.w3.org/1999/xlink">
        <g id="Artboard-Copy-2" transform="translate(-88.000000, -298.000000)" fill-rule="nonzero">
            <g id="Group-2-Copy" transform="translate(48.000000, 184.000000)">
                <path d="M120.228466,114.975954 C130.365753,117.845406 137.903698,126.005504 139.647858,135.992556 L139.711171,136.430766 L139.711171,136.430766 L139.763915,136.870608 C139.787644,137.091874 139.807411,137.315861 139.823214,137.54573 L139.849535,138.01425 L139.849535,138.01425 L139.865287,138.504081 C139.867031,138.587807 139.868335,138.672656 139.869199,138.758744 L139.869098,139.291082 L139.869098,139.291082 L139.858427,139.858786 L139.858427,139.858786 L139.837187,140.467479 L139.837187,140.467479 L139.805378,141.122783 L139.805378,141.122783 L139.763,141.83032 L139.763,141.83032 L139.710053,142.595713 L139.710053,142.595713 L139.647858,143.408011 L139.456223,145.324226 L139.456223,145.324226 L139.221096,147.443108 L139.221096,147.443108 L139.089396,148.479771 L139.089396,148.479771 L139.019644,148.94223 L139.019644,148.94223 L138.991492,149.093199 L138.991492,149.093199 L138.979288,149.146917 C138.841481,149.735679 138.992542,150.034559 139.519532,150.283218 L139.647858,150.339818 C140.799856,150.786604 142.062058,152.128434 142.618955,153.543991 C143.732748,156.339717 142.879036,162.450206 140.836591,166.586287 C140.566982,167.1488 140.175381,167.777308 139.738087,168.386079 L139.440626,168.788061 C139.3902,168.854257 139.339419,168.919975 139.288388,168.985095 L138.980039,169.367721 C138.773588,169.616779 138.566485,169.85253 138.365427,170.067447 L138.069213,170.373257 C137.537535,170.901813 137.076908,171.244356 136.826639,171.244356 C136.749464,171.244356 136.645269,171.411154 136.528088,171.700819 L136.437987,171.94042 L136.437987,171.94042 L136.344332,172.221977 L136.344332,172.221977 L136.24844,172.541371 L136.24844,172.541371 L136.151627,172.894486 L136.151627,172.894486 L136.055207,173.277201 L136.055207,173.277201 L135.960498,173.685398 L135.960498,173.685398 L135.868814,174.114959 L135.868814,174.114959 L135.824518,174.336463 C135.151273,178.035411 133.767103,181.258747 131.60811,184.201406 L131.294404,184.619897 L129.51204,186.967363 L129.681675,192.575647 L129.681675,192.575647 L129.706276,193.218548 L129.706276,193.218548 L129.734996,193.816203 L129.734996,193.816203 L129.768579,194.371164 L129.768579,194.371164 L129.80777,194.885983 C129.81481,194.968582 129.822116,195.049616 129.829701,195.129136 L129.8787,195.588525 C129.887469,195.662205 129.896548,195.734479 129.905954,195.805399 L129.966437,196.215099 C130.117291,197.135149 130.338267,197.810718 130.671929,198.387666 L130.821951,198.629317 C130.97912,198.865781 131.158104,199.087958 131.362253,199.30733 L131.574914,199.526192 L131.574914,199.526192 L131.805097,199.745736 C131.844962,199.782525 131.885588,199.819449 131.926991,199.856561 L132.184852,200.081911 L132.184852,200.081911 C132.222006,200.112793 132.264525,200.144951 132.312366,200.178372 L132.471816,200.282412 L132.471816,200.282412 L132.662953,200.393948 L132.662953,200.393948 L132.885526,200.512897 L132.885526,200.512897 L133.139288,200.639175 L133.139288,200.639175 L133.577863,200.842153 L133.577863,200.842153 L134.085209,201.061152 L134.085209,201.061152 L134.660486,201.295892 L134.660486,201.295892 L135.302851,201.546092 L135.302851,201.546092 L136.262245,201.903253 L136.262245,201.903253 L137.057881,202.18843 L137.057881,202.18843 L138.218582,202.591206 L138.218582,202.591206 L139.491574,203.019132 L139.491574,203.019132 L141.237686,203.588388 L141.237686,203.588388 L143.555026,204.320157 L143.555026,204.320157 L145.231352,204.836452 L145.231352,204.836452 L147.471119,205.512653 L147.471119,205.512653 L149.375988,206.077467 L149.375988,206.077467 L151.895125,206.812208 L151.895125,206.812208 L154.018443,207.422166 L154.018443,207.422166 L155.089062,207.72669 L155.089062,207.72669 L156.111358,208.022458 L156.111358,208.022458 L157.558439,208.451723 L157.558439,208.451723 L158.468415,208.72966 L158.468415,208.72966 L159.75611,209.136524 L159.75611,209.136524 L160.56589,209.402424 L160.56589,209.402424 L161.338987,209.665134 C161.464887,209.708704 161.58934,209.75218 161.712385,209.795581 L162.434094,210.055242 C162.551672,210.09842 162.667924,210.141562 162.78289,210.184687 L163.457576,210.443386 C164.007493,210.659055 164.527282,210.875263 165.021994,211.094426 L165.603934,211.358993 C165.794117,211.447758 165.980611,211.53715 166.16374,211.627324 L166.703352,211.900346 C166.968433,212.038184 167.226669,212.178129 167.47915,212.320702 L167.976764,212.609507 C168.058529,212.658277 168.139736,212.707377 168.220424,212.756828 L168.698659,213.057886 C168.856214,213.159741 169.012019,213.263151 169.166399,213.36827 L169.625585,213.68891 L169.625585,213.68891 L170.078156,214.020731 L170.078156,214.020731 L170.526053,214.364662 L170.526053,214.364662 L170.971215,214.721629 L170.971215,214.721629 L171.415581,215.09256 C171.563786,215.218634 171.712183,215.34719 171.861093,215.478382 L172.309689,215.880023 L172.309689,215.880023 L172.763311,216.298409 L172.763311,216.298409 L172.992612,216.514172 C178.380357,221.591212 182.340239,230.03571 183.858707,239.705073 L184.059167,241.04614 L184.059167,241.04614 L184.203882,242.073417 L184.203882,242.073417 L184.320031,242.975485 L184.320031,242.975485 L184.381539,243.512345 L184.381539,243.512345 L184.430269,244.001734 L184.430269,244.001734 L180.499053,244 L180.5,243.415049 C180.5,243.146309 180.473722,242.789902 180.425405,242.367368 L180.357119,241.829965 L180.357119,241.829965 L180.269305,241.237353 L180.269305,241.237353 L180.163591,240.597803 L180.163591,240.597803 L180.041606,239.919586 C180.02001,239.803788 179.997803,239.686722 179.975021,239.568563 L179.831683,238.847856 L179.831683,238.847856 L179.676144,238.109162 L179.676144,238.109162 L179.510034,237.360752 L179.510034,237.360752 L179.334981,236.610898 L179.334981,236.610898 L179.152613,235.867871 C179.121699,235.745062 179.090548,235.622882 179.059194,235.501503 L178.868907,234.784228 C178.804847,234.549261 178.740246,234.318878 178.675376,234.094459 L178.480229,233.440468 L178.480229,233.440468 L178.382559,233.129475 C176.4283,226.861678 172.709491,221.019662 168.635309,217.817406 L168.312951,217.570121 C168.180669,217.469885 168.048268,217.371444 167.915428,217.27466 L167.515275,216.989136 C167.448257,216.942331 167.38105,216.895905 167.313614,216.849841 L166.90593,216.577661 C166.837418,216.532975 166.768598,216.488617 166.699429,216.444569 L166.279913,216.183858 L166.279913,216.183858 L165.850121,215.929752 L165.850121,215.929752 L165.408141,215.681418 L165.408141,215.681418 L164.952062,215.438021 C164.874767,215.39782 164.796806,215.35779 164.718138,215.317914 L164.237325,215.080363 L164.237325,215.080363 L163.737636,214.845666 L163.737636,214.845666 L163.217157,214.612991 L163.217157,214.612991 L162.673977,214.381504 C162.58145,214.342976 162.487896,214.304462 162.393278,214.265946 L161.812464,214.03468 L161.812464,214.03468 L161.204172,213.802519 L161.204172,213.802519 L160.56649,213.56863 C160.457654,213.529459 160.347514,213.49018 160.23603,213.450778 L159.550678,213.212735 L159.550678,213.212735 L158.831159,212.970881 L158.831159,212.970881 L158.075559,212.724383 L158.075559,212.724383 L157.281969,212.472408 L157.281969,212.472408 L156.016168,212.082351 L156.016168,212.082351 L154.654136,211.675284 L154.654136,211.675284 L148.825784,209.978109 L148.825784,209.978109 L145.361048,208.947062 L145.361048,208.947062 L143.979928,208.52902 L143.979928,208.52902 L141.408921,207.737194 L141.408921,207.737194 L139.098453,207.006079 L139.098453,207.006079 L137.376904,206.444661 L137.376904,206.444661 L136.434654,206.129216 L136.434654,206.129216 L135.285845,205.734124 L135.285845,205.734124 L134.505963,205.457261 L134.505963,205.457261 L133.576673,205.114535 L133.576673,205.114535 L132.963702,204.87764 L132.963702,204.87764 L132.423656,204.658298 L132.423656,204.658298 L131.957369,204.456764 L131.957369,204.456764 L131.687901,204.332427 L131.687901,204.332427 L131.451832,204.216193 L131.451832,204.216193 C130.262242,203.579727 128.960898,202.496256 128.218323,201.560801 L128.0941,201.394242 L128.0941,201.394242 L127.858276,201.063221 C126.872268,199.6322 126.347911,198.222524 126.091495,195.940045 L126.03699,195.397418 L126.03699,195.397418 L125.991469,194.821362 C125.984601,194.722431 125.978086,194.622006 125.971912,194.520035 L125.938875,193.889257 L125.938875,193.889257 L125.913498,193.218946 L125.913498,193.218946 L125.895254,192.506658 L125.895254,192.506658 L125.883613,191.749953 L125.883613,191.749953 L125.878046,190.946388 L125.878046,190.946388 L125.877375,184.915015 L127.51251,183.156595 C130.362622,180.106655 132.406535,174.908 132.557912,170.569135 L132.56643,170.177145 C132.56643,168.344717 133.383997,167.29677 134.683871,167.558757 C135.755316,167.753454 136.975546,166.254406 137.873303,164.010352 L138.048415,163.551889 C138.588437,162.070413 138.986509,160.315477 139.122914,158.528095 L139.16102,157.96631 L139.16102,157.96631 L139.190727,157.439642 L139.190727,157.439642 L139.209466,156.954403 L139.209466,156.954403 L139.216577,156.509111 C139.216936,156.367174 139.215247,156.231648 139.2114,156.102285 L139.193274,155.732444 C139.077446,154.090508 138.517057,153.608327 137.210095,153.608327 C136.244013,153.608327 134.757393,152.859371 134.794154,152.373881 L135.351453,147.810573 C135.396616,147.451267 135.439314,147.098923 135.479507,146.753267 L135.592541,145.736092 C135.66284,145.070987 135.722976,144.43154 135.772652,143.815558 L135.839283,142.908908 L135.839283,142.908908 L135.89,142.03581 C136.203035,135.752095 135.214386,132.042201 132.528198,127.986902 C129.407913,123.274099 124.390755,119.758739 118.742775,118.29931 C116.835772,117.803506 114.90884,117.543763 113.000074,117.505085 L113,244 L40.6090525,244.001734 L40.6973295,243.146737 L40.6973295,243.146737 L40.7700027,242.485225 C42.1071431,229.852851 47.3058272,219.494215 55.140588,213.867375 C58.1782076,211.699803 61.492703,210.209788 66.8404916,208.612976 L67.9376803,208.291957 L67.9376803,208.291957 L71.2388391,207.348413 L71.2388391,207.348413 L73.1550494,206.787115 L73.1550494,206.787115 L76.8382294,205.688105 L76.8382294,205.688105 L80.1796535,204.672191 L80.1796535,204.672191 L83.3866404,203.680192 L83.3866404,203.680192 L86.5971899,202.665258 L86.5971899,202.665258 L88.3757927,202.087309 L88.3757927,202.087309 L89.3537301,201.760266 L89.3537301,201.760266 L90.1377158,201.488317 L90.1377158,201.488317 L90.5841345,201.324888 L90.5841345,201.324888 L90.898072,201.199612 L90.898072,201.199612 C91.6401115,200.901755 92.6437014,200.267703 93.1256597,199.820918 L93.2480306,199.704558 L93.2480306,199.704558 L93.4787452,199.475682 C93.5895263,199.362154 93.6935427,199.249619 93.7912422,199.136403 L93.9783513,198.908567 C94.5152077,198.219361 94.8354062,197.46548 95.0356924,196.285444 L95.098146,195.87582 C95.1175719,195.733686 95.1356502,195.585796 95.1525134,195.431653 L95.199591,194.949969 L95.199591,194.949969 L95.2401749,194.427792 L95.2401749,194.427792 L95.2750615,193.862148 L95.2750615,193.862148 L95.305047,193.25006 L95.305047,193.25006 L95.3425775,192.238341 L95.3425775,192.238341 L95.5016552,186.965889 L93.7192912,184.618423 C91.3800303,181.563178 89.8944821,178.210077 89.1891773,174.334989 L89.0914863,173.871919 L89.0914863,173.871919 L88.9434227,173.230963 L88.9434227,173.230963 L88.8447608,172.843495 L88.8447608,172.843495 L88.7469886,172.491154 L88.7469886,172.491154 L88.6508367,172.176733 L88.6508367,172.176733 L88.5570355,171.903024 C88.4030646,171.482319 88.2619315,171.242881 88.1488527,171.242881 C88.0626488,171.242881 87.901996,171.151787 87.6917107,170.991663 L87.4658003,170.809346 C87.4256976,170.775398 87.384446,170.739736 87.3421603,170.702462 L87.0769575,170.460308 C87.0309954,170.417 86.984229,170.372284 86.9367733,170.326264 L86.6446862,170.035304 L86.6446862,170.035304 L86.3415696,169.717937 L86.3415696,169.717937 L86.0329383,169.379064 L86.0329383,169.379064 C83.1735151,166.211754 81.2794778,159.392012 82.0597213,155.219067 L82.1338047,154.827598 L82.1338047,154.827598 L82.2148791,154.443161 L82.2148791,154.443161 L82.3419903,153.902636 L82.3419903,153.902636 L82.4652658,153.436935 L82.4652658,153.436935 L82.5395214,153.185517 C82.5511272,153.148279 82.5622997,153.11352 82.5729664,153.081457 L82.6303169,152.923188 C82.6386704,152.902786 82.6463732,152.885518 82.6533528,152.871602 C83.1774911,151.959816 84.3589376,150.784185 85.1772376,150.400706 L85.3261641,150.338344 C85.8741317,150.132816 86.1065901,149.830544 86.0223837,149.433848 L85.9830778,149.291592 L85.9830778,149.291592 L85.9569285,149.165769 L85.9569285,149.165769 L85.9111086,148.875012 L85.9111086,148.875012 L85.7989887,147.972122 L85.7989887,147.972122 L85.5929648,146.002131 L85.5929648,146.002131 L85.3628987,143.593803 L85.3628987,143.593803 L85.2777156,142.415033 L85.2777156,142.415033 L85.2129765,141.359962 L85.2129765,141.359962 L85.1686813,140.41376 L85.1686813,140.41376 L85.1505089,139.836116 C85.1482373,139.74308 85.1463444,139.651603 85.14483,139.561593 L85.1402869,139.0384 L85.1402869,139.0384 L85.14483,138.546014 L85.14483,138.546014 L85.1584593,138.080041 C85.161488,138.004336 85.1648954,137.929548 85.1686813,137.855586 L85.1959399,137.420992 C85.2012401,137.349967 85.206919,137.279585 85.2129765,137.209755 L85.2538644,136.796652 L85.2538644,136.796652 L85.3038385,136.392384 L85.3038385,136.392384 L85.3628987,135.992556 L85.3628987,135.992556 C87.2936706,124.85094 96.0938174,116.392985 107.975265,114.231311 C110.759749,113.709325 117.1839,114.119247 120.228466,114.975954 Z" id="Path"></path>
            </g>
        </g>
</svg>