<?xml version="1.0" encoding="UTF-8"?>
<svg width="320px" height="307px" viewBox="0 0 320 307" version="1.1" xmlns="http://www.w3.org/2000/svg" xmlns:xlink="http://www.w3.org/1999/xlink">
    <title>Group 6</title>
    <g id="Page-1" stroke="none" stroke-width="1" fill="none" fill-rule="evenodd">
        <g id="Artboard" transform="translate(-62.000000, -103.000000)" stroke="#313131">
            <g id="Group-6" transform="translate(64.969162, 106.210943)">
                <path d="M98.5308375,12.289057 C100.530838,3.28905703 135.530838,-4.71094297 142.530838,3.28905703 C149.530838,11.289057 142.530838,61.789057 128.530838,63.789057 C114.530838,65.789057 96.5308375,21.289057 98.5308375,12.289057 Z" id="Path-Copy" stroke-width="5"></path>
                <path d="M149.530838,12.289057 C151.530838,3.28905703 186.530838,-4.71094297 193.530838,3.28905703 C200.530838,11.289057 193.530838,61.789057 179.530838,63.789057 C165.530838,65.789057 147.530838,21.289057 149.530838,12.289057 Z" id="Path-Copy-2" stroke-width="5" transform="translate(172.827333, 31.927206) scale(-1, 1) translate(-172.827333, -31.927206) "></path>
                <path d="M149.530838,12.289057 C151.530838,3.28905703 186.530838,-4.71094297 193.530838,3.28905703 C200.530838,11.289057 193.530838,61.789057 179.530838,63.789057 C165.530838,65.789057 147.530838,21.289057 149.530838,12.289057 Z" id="Path-Copy-3" stroke-width="5" transform="translate(172.827333, 31.927206) scale(-1, 1) translate(-172.827333, -31.927206) "></path>
                <path d="M190.993008,32.5926289 C192.570858,25.4044022 220.183223,19.0148673 225.705697,25.4044022 C231.22817,31.7939371 225.705697,72.1278762 214.66075,73.7252599 C203.615804,75.3226437 189.415159,39.7808557 190.993008,32.5926289 Z" id="Path-Copy-4" stroke-width="5" transform="translate(209.372190, 48.277459) scale(-1, 1) rotate(-23.000000) translate(-209.372190, -48.277459) "></path>
                <path d="M68.9930084,32.5926289 C70.5708579,25.4044022 98.1832235,19.0148673 103.705697,25.4044022 C109.22817,31.7939371 103.705697,72.1278762 92.6607504,73.7252599 C81.6158041,75.3226437 67.415159,39.7808557 68.9930084,32.5926289 Z" id="Path-Copy-10" stroke-width="5" transform="translate(87.372190, 48.277459) rotate(-23.000000) translate(-87.372190, -48.277459) "></path>
                <path d="M217.993008,63.9453008 C218.809902,60.223768 225.738231,50.2450533 234.814143,48.2593386 C243.268565,46.4095994 253.885012,50.8895729 256.548356,53.9710786 C262.070829,60.3606135 253.610085,98.2291156 242.565138,99.8264994 C231.520192,101.423883 216.415158,71.1335276 217.993008,63.9453008 Z" id="Path-Copy-5" stroke-width="5" transform="translate(238.081696, 73.856633) scale(-1, 1) rotate(-47.000000) translate(-238.081696, -73.856633) "></path>
                <path d="M217.993008,63.9453008 C218.809902,60.223768 225.738231,50.2450533 234.814143,48.2593386 C243.268565,46.4095994 253.885012,50.8895729 256.548356,53.9710786 C262.070829,60.3606135 253.610085,98.2291156 242.565138,99.8264994 C231.520192,101.423883 216.415158,71.1335276 217.993008,63.9453008 Z" id="Path-Copy-11" stroke-width="5" transform="translate(238.081696, 73.856633) scale(-1, 1) rotate(-47.000000) translate(-238.081696, -73.856633) "></path>
                <path d="M42.425176,64.0873837 C43.2420699,60.3658509 54.0987965,47.2684305 63.1747084,45.2827158 C71.6291301,43.4329767 78.3171799,51.0316558 80.9805244,54.1131614 C86.5029975,60.5026964 75.7541434,101.049479 64.7091972,102.646863 C53.6642509,104.244246 40.8473265,71.2756105 42.425176,64.0873837 Z" id="Path-Copy-12" stroke-width="5" transform="translate(62.384396, 73.849673) rotate(-47.000000) translate(-62.384396, -73.849673) "></path>
                <g id="Group-5" transform="translate(219.611765, 87.068531)">
                    <path d="M9.12212903,18.6021625 C9.89038399,15.1709626 10.9799358,7.57725638 24.3682023,3.48405251 C33.9301779,0.560663202 47.2085275,11.7166283 49.7132929,14.5577323 C54.9069507,20.4487918 43.4759397,48.881127 31.7079109,51.4332827 C19.9398821,53.9854384 7.63822681,25.2296044 9.12212903,18.6021625 Z" id="Path-Copy-6" stroke-width="5" transform="translate(30.000364, 27.296569) scale(-1, 1) rotate(-73.000000) translate(-30.000364, -27.296569) "></path>
                    <g id="Group" transform="translate(27.919072, 31.220526) rotate(14.000000) translate(-27.919072, -31.220526) translate(16.419072, 15.720526)">
                        <path d="M0,0 C5.15427624,5.06019719 8.48760957,9.39353052 10,13 C11.5123904,16.6064695 12.5123904,22.6064695 13,31" id="Path-2-Copy-2" stroke-width="5"></path>
                        <path d="M5,3.5 C6.33333333,4.83333333 9.66666667,4 15,1 C12.3333333,3.66666667 10.6666667,6.33333333 10,9 C9,13 3,1.5 5,3.5 Z" id="Path-3-Copy-5" stroke-width="3" fill="#313131" stroke-linecap="round" stroke-linejoin="round"></path>
                        <path d="M11,17.5 C12.3333333,18.8333333 15.6666667,18 21,15 C18.3333333,17.6666667 16.6666667,20.3333333 16,23 C15,27 9,15.5 11,17.5 Z" id="Path-3-Copy-4" stroke-width="3" fill="#313131" stroke-linecap="round" stroke-linejoin="round" transform="translate(15.797351, 19.425813) scale(1, -1) rotate(42.000000) translate(-15.797351, -19.425813) "></path>
                    </g>
                </g>
                <g id="Group-5-Copy" transform="translate(53.111765, 114.568531) scale(-1, 1) translate(-53.111765, -114.568531) translate(23.111765, 87.068531)">
                    <path d="M9.12212903,18.6021625 C9.89038399,15.1709626 10.9799358,7.57725638 24.3682023,3.48405251 C33.9301779,0.560663202 47.2085275,11.7166283 49.7132929,14.5577323 C54.9069507,20.4487918 43.4759397,48.881127 31.7079109,51.4332827 C19.9398821,53.9854384 7.63822681,25.2296044 9.12212903,18.6021625 Z" id="Path-Copy-6" stroke-width="5" transform="translate(30.000364, 27.296569) scale(-1, 1) rotate(-73.000000) translate(-30.000364, -27.296569) "></path>
                    <g id="Group" transform="translate(27.919072, 31.220526) rotate(14.000000) translate(-27.919072, -31.220526) translate(16.419072, 15.720526)">
                        <path d="M0,0 C5.15427624,5.06019719 8.48760957,9.39353052 10,13 C11.5123904,16.6064695 12.5123904,22.6064695 13,31" id="Path-2-Copy-2" stroke-width="5"></path>
                        <path d="M5,3.5 C6.33333333,4.83333333 9.66666667,4 15,1 C12.3333333,3.66666667 10.6666667,6.33333333 10,9 C9,13 3,1.5 5,3.5 Z" id="Path-3-Copy-5" stroke-width="3" fill="#313131" stroke-linecap="round" stroke-linejoin="round"></path>
                        <path d="M11,17.5 C12.3333333,18.8333333 15.6666667,18 21,15 C18.3333333,17.6666667 16.6666667,20.3333333 16,23 C15,27 9,15.5 11,17.5 Z" id="Path-3-Copy-4" stroke-width="3" fill="#313131" stroke-linecap="round" stroke-linejoin="round" transform="translate(15.797351, 19.425813) scale(1, -1) rotate(42.000000) translate(-15.797351, -19.425813) "></path>
                    </g>
                </g>
                <path d="M240.733894,149.670693 C241.502149,146.239493 242.591701,138.645787 255.979968,134.552583 C265.541943,131.629194 278.820293,142.785159 281.325058,145.626263 C286.518716,151.517322 275.087705,179.949658 263.319676,182.501813 C251.551648,185.053969 239.249992,156.298135 240.733894,149.670693 Z" id="Path-Copy-7" stroke-width="5" transform="translate(261.612130, 158.365100) scale(-1, 1) rotate(-73.000000) translate(-261.612130, -158.365100) "></path>
                <g id="Group-4" transform="translate(231.611765, 131.068531)">
                    <path d="M9.12212903,18.6021625 C9.89038399,15.1709626 10.9799358,7.57725638 24.3682023,3.48405251 C33.9301779,0.560663202 47.2085275,11.7166283 49.7132929,14.5577323 C54.9069507,20.4487918 43.4759397,48.881127 31.7079109,51.4332827 C19.9398821,53.9854384 7.63822681,25.2296044 9.12212903,18.6021625 Z" id="Path-Copy-8" stroke-width="5" transform="translate(30.000364, 27.296569) scale(-1, 1) rotate(-73.000000) translate(-30.000364, -27.296569) "></path>
                    <path d="M18.4190721,14.7205264 C23.5733483,19.7807236 26.9066817,24.1140569 28.4190721,27.7205264 C29.9314625,31.3269959 30.9314625,37.3269959 31.4190721,45.7205264" id="Path-2" stroke-width="5"></path>
                    <path d="M23.4190721,18.2205264 C24.7524054,19.5538597 28.0857388,18.7205264 33.4190721,15.7205264 C30.7524054,18.3871931 29.0857388,21.0538597 28.4190721,23.7205264 C27.4190721,27.7205264 21.4190721,16.2205264 23.4190721,18.2205264 Z" id="Path-3" stroke-width="3" fill="#313131" stroke-linecap="round" stroke-linejoin="round"></path>
                    <path d="M29.4190721,32.2205264 C30.7524054,33.5538597 34.0857388,32.7205264 39.4190721,29.7205264 C36.7524054,32.3871931 35.0857388,35.0538597 34.4190721,37.7205264 C33.4190721,41.7205264 27.4190721,30.2205264 29.4190721,32.2205264 Z" id="Path-3-Copy" stroke-width="3" fill="#313131" stroke-linecap="round" stroke-linejoin="round" transform="translate(34.216423, 34.146339) scale(1, -1) rotate(42.000000) translate(-34.216423, -34.146339) "></path>
                </g>
                <g id="Group-4-Copy" transform="translate(41.611765, 159.568531) scale(-1, 1) translate(-41.611765, -159.568531) translate(11.611765, 132.068531)">
                    <path d="M9.12212903,18.6021625 C9.89038399,15.1709626 10.9799358,7.57725638 24.3682023,3.48405251 C33.9301779,0.560663202 47.2085275,11.7166283 49.7132929,14.5577323 C54.9069507,20.4487918 43.4759397,48.881127 31.7079109,51.4332827 C19.9398821,53.9854384 7.63822681,25.2296044 9.12212903,18.6021625 Z" id="Path-Copy-8" stroke-width="5" transform="translate(30.000364, 27.296569) scale(-1, 1) rotate(-73.000000) translate(-30.000364, -27.296569) "></path>
                    <path d="M18.4190721,14.7205264 C23.5733483,19.7807236 26.9066817,24.1140569 28.4190721,27.7205264 C29.9314625,31.3269959 30.9314625,37.3269959 31.4190721,45.7205264" id="Path-2" stroke-width="5"></path>
                    <path d="M23.4190721,18.2205264 C24.7524054,19.5538597 28.0857388,18.7205264 33.4190721,15.7205264 C30.7524054,18.3871931 29.0857388,21.0538597 28.4190721,23.7205264 C27.4190721,27.7205264 21.4190721,16.2205264 23.4190721,18.2205264 Z" id="Path-3" stroke-width="3" fill="#313131" stroke-linecap="round" stroke-linejoin="round"></path>
                    <path d="M29.4190721,32.2205264 C30.7524054,33.5538597 34.0857388,32.7205264 39.4190721,29.7205264 C36.7524054,32.3871931 35.0857388,35.0538597 34.4190721,37.7205264 C33.4190721,41.7205264 27.4190721,30.2205264 29.4190721,32.2205264 Z" id="Path-3-Copy" stroke-width="3" fill="#313131" stroke-linecap="round" stroke-linejoin="round" transform="translate(34.216423, 34.146339) scale(1, -1) rotate(42.000000) translate(-34.216423, -34.146339) "></path>
                </g>
                <g id="Group-3" transform="translate(242.205224, 180.060434)">
                    <path d="M11.825614,61.7286228 C7.32548062,61.3456327 3.82561403,53.7286228 3.32561403,47.2286228 C2.76573716,39.9502234 -6.17438597,21.7286228 7.82561403,12.7286228 C13.2558585,9.23775133 17.3423216,7.08587689 19.825614,5.72862276 C23.744629,3.58666834 25.2558585,3.17712435 33.825614,0.728622763 C47.825614,-3.27137724 56.825614,9.72862276 55.325614,26.7286228 C57.825614,35.7286228 62.2604815,43.2575395 49.325614,53.7286228 C36.3907465,64.199706 16.3257474,62.1116128 11.825614,61.7286228 Z" id="Path" stroke-width="5"></path>
                    <path d="M8.82561403,13.7286228 C10.2443074,13.1611454 15.0914837,10.5885765 19.825614,14.7286228 C22.4022204,16.9818918 24.1399921,23.9925414 25.825614,26.7286228 C28.3197475,30.7770705 25.825614,38.7286228 27.825614,39.7286228 C29.825614,40.7286228 34.825614,33.7286228 40.825614,31.7286228 C44.825614,30.3952894 50.1589474,28.7286228 56.825614,26.7286228 C56.3028677,24.547585 55.9695344,22.8809183 55.825614,21.7286228 C55.4348685,18.6001258 52.6666487,14.8210384 52.825614,16.7286228 C53.4867278,24.6619876 47.825614,28.7286228 39.825614,27.7286228 C36.5270798,27.316306 33.5200453,29.7452815 31.825614,28.7286228 C26.825614,25.7286228 26.0395502,19.2909632 25.825614,13.7286228 C25.6829899,10.0203958 27.3496566,6.35372911 30.825614,2.72862276 C12.825614,11.3952894 5.4922807,15.0619561 8.82561403,13.7286228 Z" id="Path-4" stroke-width="2" fill="#313131" stroke-linecap="round" stroke-linejoin="round"></path>
                    <path d="M6.82561403,52.7286228 C9.32856187,49.8543597 12.3285619,48.8543597 15.825614,49.7286228 C18.1207173,50.3023986 24.0871955,52.0364801 28.825614,54.7286228 C30.4799585,55.6685421 31.4799585,57.0018755 31.825614,58.7286228 C44.7166693,57.1773999 50.7166693,55.5107333 49.825614,53.7286228 C48.4890312,51.055457 33.325614,54.2286228 28.325614,49.2286228 C24.9922807,45.8952894 16.4922807,44.7286228 2.82561403,45.7286228 L6.82561403,52.7286228 Z" id="Path-5" fill="#313131" stroke-linecap="round"></path>
                </g>
                <g id="Group-3-Copy" transform="translate(37.205224, 212.560434) scale(-1, 1) translate(-37.205224, -212.560434) translate(7.705224, 181.060434)">
                    <path d="M11.825614,61.7286228 C7.32548062,61.3456327 3.82561403,53.7286228 3.32561403,47.2286228 C2.76573716,39.9502234 -6.17438597,21.7286228 7.82561403,12.7286228 C13.2558585,9.23775133 17.3423216,7.08587689 19.825614,5.72862276 C23.744629,3.58666834 25.2558585,3.17712435 33.825614,0.728622763 C47.825614,-3.27137724 56.825614,9.72862276 55.325614,26.7286228 C57.825614,35.7286228 62.2604815,43.2575395 49.325614,53.7286228 C36.3907465,64.199706 16.3257474,62.1116128 11.825614,61.7286228 Z" id="Path" stroke-width="5"></path>
                    <path d="M8.82561403,13.7286228 C10.2443074,13.1611454 15.0914837,10.5885765 19.825614,14.7286228 C22.4022204,16.9818918 24.1399921,23.9925414 25.825614,26.7286228 C28.3197475,30.7770705 25.825614,38.7286228 27.825614,39.7286228 C29.825614,40.7286228 34.825614,33.7286228 40.825614,31.7286228 C44.825614,30.3952894 50.1589474,28.7286228 56.825614,26.7286228 C56.3028677,24.547585 55.9695344,22.8809183 55.825614,21.7286228 C55.4348685,18.6001258 52.6666487,14.8210384 52.825614,16.7286228 C53.4867278,24.6619876 47.825614,28.7286228 39.825614,27.7286228 C36.5270798,27.316306 33.5200453,29.7452815 31.825614,28.7286228 C26.825614,25.7286228 26.0395502,19.2909632 25.825614,13.7286228 C25.6829899,10.0203958 27.3496566,6.35372911 30.825614,2.72862276 C12.825614,11.3952894 5.4922807,15.0619561 8.82561403,13.7286228 Z" id="Path-4" stroke-width="2" fill="#313131" stroke-linecap="round" stroke-linejoin="round"></path>
                    <path d="M6.82561403,52.7286228 C9.32856187,49.8543597 12.3285619,48.8543597 15.825614,49.7286228 C18.1207173,50.3023986 24.0871955,52.0364801 28.825614,54.7286228 C30.4799585,55.6685421 31.4799585,57.0018755 31.825614,58.7286228 C44.7166693,57.1773999 50.7166693,55.5107333 49.825614,53.7286228 C48.4890312,51.055457 33.325614,54.2286228 28.325614,49.2286228 C24.9922807,45.8952894 16.4922807,44.7286228 2.82561403,45.7286228 L6.82561403,52.7286228 Z" id="Path-5" fill="#313131" stroke-linecap="round"></path>
                </g>
                <g id="Group-2" transform="translate(257.000000, 240.016055)">
                    <path d="M11.0308375,57.7730015 C6.53070412,57.3900115 3.53083753,49.2730015 3.03083753,42.7730015 C2.47096066,35.4946022 -5.96916247,19.7730015 8.03083753,10.7730015 C13.461082,7.28213011 25.461082,3.22150313 34.0308375,0.773001538 C48.0308375,-3.22699846 57.5308375,8.77300154 56.0308375,25.7730015 C58.5308375,34.7730015 59.0308375,48.7730015 46.0308375,52.7730015 C33.0308375,56.7730015 15.5309709,58.1559916 11.0308375,57.7730015 Z" id="Path-Copy-9" stroke-width="5"></path>
                    <path d="M4.03083753,44.7730015 C2.03083753,38.7730015 9.03083753,39.2730015 25.0308375,46.2730015 C41.0308375,53.2730015 51.3641709,49.4396682 56.0308375,34.7730015 L55.0308375,46.7730015 C37.0308375,55.4396682 28.0308375,58.1063349 28.0308375,54.7730015 C28.0308375,49.7730015 17.065659,48.0568084 13.0308375,46.7730015 C10.3409566,45.9171303 8.00762324,46.583797 6.03083753,48.7730015 L4.03083753,44.7730015 Z" id="Path-6" fill="#313131"></path>
                    <path d="M12.0308375,10.7730015 C20.8342241,9.02950855 24.1675574,11.3628419 22.0308375,17.7730015 C21.0308375,20.7730015 23.5308375,23.7730015 24.5308375,25.7730015 C25.6957894,28.1029053 25.4065046,29.8781008 25.5308375,32.2730015 C25.6657828,34.8723163 22.0308375,39.7730015 25.0308375,40.7730015 C27.0308375,41.4396682 28.6975042,38.7730015 30.0308375,32.7730015 C35.0308375,34.1063349 38.8641709,34.1063349 41.5308375,32.7730015 C44.1975042,31.4396682 48.3641709,30.1063349 54.0308375,28.7730015 L54.0308375,22.7730015 C51.2964056,24.8954069 48.2964056,26.2287402 45.0308375,26.7730015 C41.7652694,27.3172629 36.4319361,27.3172629 29.0308375,26.7730015 C29.3326276,24.9349758 28.9992943,22.9349758 28.0308375,20.7730015 C27.0623808,18.6110273 27.0623808,15.277694 28.0308375,10.7730015 C29.3641709,10.1063349 31.3641709,9.10633487 34.0308375,7.77300154 C38.0308375,5.77300154 36.0308375,6.77300154 32.0308375,3.77300154 C29.3641709,1.77300154 22.6975042,4.10633487 12.0308375,10.7730015 Z" id="Path-7" fill="#313131"></path>
                </g>
                <g id="Group-2-Copy" transform="translate(257.000000, 240.016055)">
                    <path d="M11.0308375,57.7730015 C6.53070412,57.3900115 3.53083753,49.2730015 3.03083753,42.7730015 C2.47096066,35.4946022 -5.96916247,19.7730015 8.03083753,10.7730015 C13.461082,7.28213011 25.461082,3.22150313 34.0308375,0.773001538 C48.0308375,-3.22699846 57.5308375,8.77300154 56.0308375,25.7730015 C58.5308375,34.7730015 59.0308375,48.7730015 46.0308375,52.7730015 C33.0308375,56.7730015 15.5309709,58.1559916 11.0308375,57.7730015 Z" id="Path-Copy-9" stroke-width="5"></path>
                    <path d="M4.03083753,44.7730015 C2.03083753,38.7730015 9.03083753,39.2730015 25.0308375,46.2730015 C41.0308375,53.2730015 51.3641709,49.4396682 56.0308375,34.7730015 L55.0308375,46.7730015 C37.0308375,55.4396682 28.0308375,58.1063349 28.0308375,54.7730015 C28.0308375,49.7730015 17.065659,48.0568084 13.0308375,46.7730015 C10.3409566,45.9171303 8.00762324,46.583797 6.03083753,48.7730015 L4.03083753,44.7730015 Z" id="Path-6" fill="#313131"></path>
                    <path d="M12.0308375,10.7730015 C20.8342241,9.02950855 24.1675574,11.3628419 22.0308375,17.7730015 C21.0308375,20.7730015 23.5308375,23.7730015 24.5308375,25.7730015 C25.6957894,28.1029053 25.4065046,29.8781008 25.5308375,32.2730015 C25.6657828,34.8723163 22.0308375,39.7730015 25.0308375,40.7730015 C27.0308375,41.4396682 28.6975042,38.7730015 30.0308375,32.7730015 C35.0308375,34.1063349 38.8641709,34.1063349 41.5308375,32.7730015 C44.1975042,31.4396682 48.3641709,30.1063349 54.0308375,28.7730015 L54.0308375,22.7730015 C51.2964056,24.8954069 48.2964056,26.2287402 45.0308375,26.7730015 C41.7652694,27.3172629 36.4319361,27.3172629 29.0308375,26.7730015 C29.3326276,24.9349758 28.9992943,22.9349758 28.0308375,20.7730015 C27.0623808,18.6110273 27.0623808,15.277694 28.0308375,10.7730015 C29.3641709,10.1063349 31.3641709,9.10633487 34.0308375,7.77300154 C38.0308375,5.77300154 36.0308375,6.77300154 32.0308375,3.77300154 C29.3641709,1.77300154 22.6975042,4.10633487 12.0308375,10.7730015 Z" id="Path-7" fill="#313131"></path>
                </g>
                <g id="Group-2-Copy-2" transform="translate(29.000000, 271.016055) scale(-1, 1) translate(-29.000000, -271.016055) translate(0.000000, 242.016055)">
                    <path d="M11.0308375,57.7730015 C6.53070412,57.3900115 3.53083753,49.2730015 3.03083753,42.7730015 C2.47096066,35.4946022 -5.96916247,19.7730015 8.03083753,10.7730015 C13.461082,7.28213011 25.461082,3.22150313 34.0308375,0.773001538 C48.0308375,-3.22699846 57.5308375,8.77300154 56.0308375,25.7730015 C58.5308375,34.7730015 59.0308375,48.7730015 46.0308375,52.7730015 C33.0308375,56.7730015 15.5309709,58.1559916 11.0308375,57.7730015 Z" id="Path-Copy-9" stroke-width="5"></path>
                    <path d="M4.03083753,44.7730015 C2.03083753,38.7730015 9.03083753,39.2730015 25.0308375,46.2730015 C41.0308375,53.2730015 51.3641709,49.4396682 56.0308375,34.7730015 L55.0308375,46.7730015 C37.0308375,55.4396682 28.0308375,58.1063349 28.0308375,54.7730015 C28.0308375,49.7730015 17.065659,48.0568084 13.0308375,46.7730015 C10.3409566,45.9171303 8.00762324,46.583797 6.03083753,48.7730015 L4.03083753,44.7730015 Z" id="Path-6" fill="#313131"></path>
                    <path d="M12.0308375,10.7730015 C20.8342241,9.02950855 24.1675574,11.3628419 22.0308375,17.7730015 C21.0308375,20.7730015 23.5308375,23.7730015 24.5308375,25.7730015 C25.6957894,28.1029053 25.4065046,29.8781008 25.5308375,32.2730015 C25.6657828,34.8723163 22.0308375,39.7730015 25.0308375,40.7730015 C27.0308375,41.4396682 28.6975042,38.7730015 30.0308375,32.7730015 C35.0308375,34.1063349 38.8641709,34.1063349 41.5308375,32.7730015 C44.1975042,31.4396682 48.3641709,30.1063349 54.0308375,28.7730015 L54.0308375,22.7730015 C51.2964056,24.8954069 48.2964056,26.2287402 45.0308375,26.7730015 C41.7652694,27.3172629 36.4319361,27.3172629 29.0308375,26.7730015 C29.3326276,24.9349758 28.9992943,22.9349758 28.0308375,20.7730015 C27.0623808,18.6110273 27.0623808,15.277694 28.0308375,10.7730015 C29.3641709,10.1063349 31.3641709,9.10633487 34.0308375,7.77300154 C38.0308375,5.77300154 36.0308375,6.77300154 32.0308375,3.77300154 C29.3641709,1.77300154 22.6975042,4.10633487 12.0308375,10.7730015 Z" id="Path-7" fill="#313131"></path>
                </g>
                <path d="M250.030838,145.789057 C255.185114,150.849254 258.518447,155.182588 260.030838,158.789057 C261.543228,162.395527 262.543228,168.395527 263.030838,176.789057" id="Path-2-Copy" stroke-width="5"></path>
                <path d="M255.030838,149.289057 C256.364171,150.62239 259.697504,149.789057 265.030838,146.789057 C262.364171,149.455724 260.697504,152.12239 260.030838,154.789057 C259.030838,158.789057 253.030838,147.289057 255.030838,149.289057 Z" id="Path-3-Copy-3" stroke-width="3" fill="#313131" stroke-linecap="round" stroke-linejoin="round"></path>
                <path d="M261.030838,163.289057 C262.364171,164.62239 265.697504,163.789057 271.030838,160.789057 C268.364171,163.455724 266.697504,166.12239 266.030838,168.789057 C265.030838,172.789057 259.030838,161.289057 261.030838,163.289057 Z" id="Path-3-Copy-2" stroke-width="3" fill="#313131" stroke-linecap="round" stroke-linejoin="round" transform="translate(265.828188, 165.214870) scale(1, -1) rotate(42.000000) translate(-265.828188, -165.214870) "></path>
            </g>
        </g>
    </g>
</svg>