<?xml version="1.0" encoding="UTF-8"?>
<svg width="459px" height="306px" viewBox="0 0 459 306" version="1.1" xmlns="http://www.w3.org/2000/svg" xmlns:xlink="http://www.w3.org/1999/xlink">
    <!-- Generator: Sketch 64 (93537) - https://sketch.com -->
    <title>Shape</title>
    <desc>Created with Sketch.</desc>
    <g id="Page-1" stroke="none" stroke-width="1" fill-rule="evenodd">
        <path d="M254.5,255 C268.583261,255 280,266.416739 280,280.5 C280,294.583261 268.583261,306 254.5,306 L204.5,306 C190.416739,306 179,294.583261 179,280.5 C179,266.416739 190.416739,255 204.5,255 L254.5,255 Z M356.5,127.5 C370.583261,127.5 382,138.916739 382,153 C382,167.083261 370.583261,178.5 356.5,178.5 L102.5,178.5 C88.4167389,178.5 77,167.083261 77,153 C77,138.916739 88.4167389,127.5 102.5,127.5 L356.5,127.5 Z M433.5,0 C447.583261,0 459,11.4167389 459,25.5 C459,39.5832611 447.583261,51 433.5,51 L25.5,51 C11.4167389,51 0,39.5832611 0,25.5 C0,11.4167389 11.4167389,0 25.5,0 L433.5,0 Z" id="Shape" fill="rgb(142,142,147)"></path>
    </g>
</svg>